<?xml version="1.0" standalone="no"?>
<!DOCTYPE svg PUBLIC "-//W3C//DTD SVG 20010904//EN"
 "http://www.w3.org/TR/2001/REC-SVG-20010904/DTD/svg10.dtd">
<svg version="1.0" xmlns="http://www.w3.org/2000/svg"
 width="1024.000000pt" height="1024.000000pt" viewBox="0 0 1024.000000 1024.000000"
 preserveAspectRatio="xMidYMid meet">

<g transform="translate(0.000000,1024.000000) scale(0.100000,-0.100000)"
fill="#FFC107" stroke="none">
<path d="M1577 8169 c-148 -35 -285 -145 -356 -286 -48 -96 -51 -131 -51 -713
0 -338 4 -562 11 -590 40 -175 200 -338 380 -385 46 -13 382 -15 2276 -15
1565 0 2238 3 2275 11 149 31 314 151 402 293 72 115 140 315 161 469 3 26 9
47 12 47 6 0 385 -194 491 -252 39 -22 72 -43 72 -47 0 -9 -270 -268 -455
-437 -455 -415 -1008 -865 -1520 -1235 -487 -353 -893 -618 -1570 -1024 -294
-176 -1076 -588 -1385 -728 -253 -115 -726 -345 -769 -374 -75 -49 -174 -144
-227 -220 -79 -109 -120 -223 -145 -398 -54 -381 192 -775 556 -891 157 -50
334 -48 496 6 266 89 1067 557 1849 1081 292 195 668 455 811 561 677 500 750
557 1244 963 605 497 1274 1157 1994 1968 68 75 124 137 126 137 1 0 33 -20
70 -45 224 -151 509 -220 654 -159 105 44 153 164 99 244 -35 51 -65 68 -178
101 -132 38 -207 74 -293 139 l-68 51 53 59 c70 77 114 151 152 257 29 83 31
96 31 233 0 133 -3 150 -27 212 -76 191 -234 341 -423 401 -92 29 -278 30
-370 3 -163 -50 -256 -117 -397 -290 l-24 -28 -69 35 c-84 42 -359 191 -505
273 l-104 59 -2527 3 -2526 2 -34 -23 c-62 -42 -64 -54 -61 -332 2 -137 1
-373 -3 -522 l-7 -273 -30 0 c-57 0 -124 53 -152 122 -14 32 -16 110 -16 557
l0 519 28 53 c20 38 41 62 74 82 l46 28 2589 2 2589 1 49 -25 c36 -17 62 -41
95 -87 43 -60 50 -65 179 -127 73 -36 144 -65 157 -65 41 0 48 33 30 136 -38
224 -188 397 -395 458 -49 14 -305 16 -2690 15 -1513 -1 -2652 -5 -2674 -10z
m6678 -794 c63 -22 154 -84 195 -132 17 -21 45 -67 62 -103 26 -53 32 -80 35
-155 6 -111 -9 -161 -54 -188 -25 -14 -36 -16 -52 -7 -37 19 -44 46 -30 115
15 79 2 139 -47 212 -63 92 -170 141 -283 130 -71 -8 -114 -25 -171 -71 -73
-58 -140 -42 -140 32 0 43 39 83 127 130 120 63 242 76 358 37z m-1935 -3 c0
-14 -364 -368 -411 -400 -25 -17 -70 -38 -100 -48 -51 -18 -147 -18 -1891 -19
l-1837 0 -23 23 c-22 22 -23 28 -23 208 l0 186 33 29 32 29 2110 0 c1161 0
2110 -4 2110 -8z m1786 -343 c37 -13 96 -72 115 -114 24 -51 24 -129 0 -181
-58 -127 -242 -153 -347 -49 -69 69 -80 155 -34 251 43 87 165 130 266 93z
m-862 -780 c54 -42 43 -61 -146 -235 -533 -493 -1028 -896 -1673 -1360 -1032
-743 -2145 -1392 -3249 -1895 -135 -62 -177 -70 -208 -42 -49 44 -1 118 108
162 192 79 840 398 1149 566 1392 755 2689 1672 3767 2662 189 174 202 181
252 142z m-5172 -3891 c51 -28 103 -101 113 -159 22 -131 -58 -243 -191 -268
-180 -34 -320 154 -240 325 56 120 201 167 318 102z"/>
</g>
</svg>
